<svg data-v-2cb57da0="" version="1.0" xmlns="http://www.w3.org/2000/svg" xmlns:xlink="http://www.w3.org/1999/xlink" width="100%" height="100%" viewBox="0 0 340.000000 250.000000" preserveAspectRatio="xMidYMid meet" color-interpolation-filters="sRGB" style="margin: auto;"><rect data-v-2cb57da0="" x="0" y="0" width="100%" height="100%" fill="#fff" fill-opacity="1" class="background"></rect> <!----> <g data-v-2cb57da0="" fill="#333" class="icon-text-wrapper icon-svg-group iconsvg" transform="translate(92.38687133789062,88.09374618530273)"><g class="iconsvg-imagesvg" transform="translate(0,7.372007369995117)"><g><rect fill="#333" fill-opacity="0" stroke-width="2" x="0" y="0" width="60" height="59.06848991405534" class="image-rect"></rect> <svg x="0" y="0" width="60" height="59.06848991405534" filtersec="colorsb9534574681" class="image-svg-svg primary" style="overflow: visible;"><svg xmlns="http://www.w3.org/2000/svg" viewBox="0.4385022521018982 -0.000009216904800268821 101.5615005493164 99.98497772216797"><path d="M69.3 59.41l-9.89 9.89L51 77.73 30.46 98.26A6 6 0 0 1 22 89.83L42.56 69.3 51 60.88l9.9-9.9zM102 24.28a6 6 0 0 1-1.75 4.21L77.72 51l-8.42-8.44 22.5-22.5a6 6 0 0 1 10.2 4.22z" fill="#0059cc"></path><path d="M83.64 6a5.94 5.94 0 0 1-1.74 4.21L41.08 51l-8.42-8.42 9.9-9.89L51 24.24 73.48 1.75A6 6 0 0 1 83.64 6zM32.66 59.41L12.13 79.93a6 6 0 0 1-8.42-8.42L24.24 51z" fill="#00dac7"></path><path d="M51 24.24l-8.42 8.43-22.5-22.5A6 6 0 0 1 24.28 0a5.89 5.89 0 0 1 4.2 1.75zM98.25 79.93a5.94 5.94 0 0 1-8.42 0L51 41.09l8.42-8.42 9.9 9.89 8.4 8.44 20.53 20.51a6 6 0 0 1 0 8.42z" fill="#00baec"></path><path d="M51 60.88l-8.44 8.42L1.74 28.49a6 6 0 0 1 8.43-8.43l22.49 22.5L41.08 51zM79.93 98.26a6 6 0 0 1-8.42 0L51 77.73l8.42-8.43 20.51 20.53a6 6 0 0 1 0 8.43z" fill="#00abd8"></path></svg></svg> <!----></g></g> <g transform="translate(67,0)"><g data-gra="path-name" fill-rule="" class="tp-name iconsvg-namesvg" transform="translate(0,0)"><g transform="scale(1)"><g><path d="M40.17 2.73L42.45 6.37Q43.16 7.54 43.16 8.64L43.16 8.64Q43.16 10.14 41.99 11.08 40.82 12.03 39.26 12.03L39.26 12.03Q38.09 12.03 37.05 11.47 36.01 10.92 35.36 9.81L35.36 9.81 31.53 3.51Q30.62 2.02 29.15 1.3 27.69 0.58 25.35 0.58L25.35 0.58Q18.66 0.58 13.75-2.27 8.84-5.13 6.17-10.46 3.51-15.79 3.51-22.95L3.51-22.95Q3.51-30.1 6.17-35.39 8.84-40.69 13.75-43.55 18.66-46.41 25.35-46.41L25.35-46.41Q31.98-46.41 36.89-43.55 41.8-40.69 44.46-35.39 47.13-30.1 47.13-22.95L47.13-22.95Q47.13-15.21 44.04-9.65 40.95-4.09 35.23-1.56L35.23-1.56Q38.22-0.52 40.17 2.73L40.17 2.73ZM25.35-6.11Q31.66-6.11 35.2-10.46 38.74-14.82 38.74-22.95L38.74-22.95Q38.74-31.07 35.2-35.39 31.66-39.72 25.35-39.72L25.35-39.72Q18.98-39.72 15.44-35.39 11.89-31.07 11.89-22.95L11.89-22.95Q11.89-14.82 15.44-10.46 18.98-6.11 25.35-6.11L25.35-6.11ZM59.74 0.39Q57.85 0.39 56.71-0.75 55.58-1.89 55.58-3.83L55.58-3.83 55.58-41.86Q55.58-43.75 56.65-44.79 57.72-45.83 59.61-45.83L59.61-45.83 75.59-45.83Q82.94-45.83 87.03-42.15 91.13-38.48 91.13-31.85L91.13-31.85Q91.13-25.22 87.03-21.52 82.94-17.81 75.59-17.81L75.59-17.81 63.96-17.81 63.96-3.83Q63.96-1.89 62.82-0.75 61.69 0.39 59.74 0.39L59.74 0.39ZM74.56-24.25Q83.2-24.25 83.2-31.79L83.2-31.79Q83.2-39.33 74.56-39.33L74.56-39.33 63.96-39.33 63.96-24.25 74.56-24.25Z" transform="translate(-3.509999990463257, 46.40999984741211)"></path></g> <!----> <!----> <!----> <!----> <!----> <!----> <!----></g></g> <g data-gra="path-slogan" fill-rule="" class="tp-slogan iconsvg-slogansvg" fill="#333" transform="translate(-0.6050033569335938,64.43999862670898)"><!----> <!----> <g transform="scale(1, 1)"><g transform="scale(1)"><path d="M5.91-1.08L5.02-1.78L5.63-2.48L6.70-1.64Q7.69-2.63 7.69-4.27L7.69-4.27Q7.50-7.64 4.69-7.83L4.69-7.83Q1.83-7.69 1.69-4.27L1.69-4.27Q1.83-0.94 4.69-0.80L4.69-0.80Q5.39-0.80 5.91-1.08L5.91-1.08ZM7.64-0.94L8.77-0.05L8.20 0.56L6.89-0.33Q6.05 0.14 4.69 0.14L4.69 0.14Q0.75 0 0.47-4.27L0.47-4.27Q0.70-8.72 4.69-8.81L4.69-8.81Q8.58-8.67 8.86-4.27L8.86-4.27Q8.81-2.20 7.64-0.94L7.64-0.94ZM14.60-3.19L14.60-8.58L15.77-8.58L15.77-3.05Q15.63 0.05 12.26 0.14L12.26 0.14Q9.12 0.05 8.98-2.86L8.98-2.86L8.98-8.58L10.15-8.58L10.15-3.19Q10.20-0.84 12.30-0.80L12.30-0.80Q14.60-0.84 14.60-3.19L14.60-3.19ZM16.45-8.58L17.63-8.58L17.63 0L16.45 0L16.45-8.58ZM25.48-6.05L25.48-6.05L24.35-6.05Q23.93-7.78 21.96-7.83L21.96-7.83Q19.24-7.69 19.15-4.36L19.15-4.36Q19.15-0.80 22.01-0.80L22.01-0.80Q23.98-0.84 24.45-3.19L24.45-3.19L25.57-3.19Q25.06 0.05 21.77 0.14L21.77 0.14Q18.02 0 17.93-4.31L17.93-4.31Q18.12-8.63 21.96-8.81L21.96-8.81Q25.01-8.72 25.48-6.05ZM28.17-4.31L26.81-3.05L26.81 0L25.64 0L25.64-8.58L26.81-8.58L26.81-4.41L30.99-8.58L32.63-8.58L29.02-5.11L32.72 0L31.17 0L28.17-4.31ZM35.98-7.64L33.63-7.64L33.63-4.64L35.93-4.64Q37.71-4.64 37.71-6.19L37.71-6.19Q37.71-7.59 35.98-7.64L35.98-7.64ZM36.35-3.61L33.63-3.61L33.63 0L32.46 0L32.46-8.58L36.35-8.58Q38.79-8.48 38.88-6.19L38.88-6.19Q38.74-3.70 36.35-3.61L36.35-3.61ZM43.13-3.70L40.31-3.70L40.31 0L39.14 0L39.14-8.58L43.13-8.58Q45.99-8.58 45.99-6.28L45.99-6.28Q45.99-4.88 44.77-4.22L44.77-4.22Q45.80-3.94 45.80-2.58L45.80-2.58L45.89-1.03Q45.85-0.38 46.31-0.19L46.31-0.19L46.31 0L44.86 0Q44.72-0.61 44.67-2.16L44.67-2.16Q44.72-3.70 43.13-3.70L43.13-3.70ZM43.22-7.64L40.31-7.64L40.31-4.69L43.03-4.69Q44.77-4.69 44.77-6.19L44.77-6.19Q44.77-7.64 43.22-7.64L43.22-7.64ZM53.13-4.27L53.13-4.27Q52.95-7.64 50.13-7.83L50.13-7.83Q47.28-7.69 47.13-4.27L47.13-4.27Q47.28-0.94 50.13-0.80L50.13-0.80Q52.95-0.98 53.13-4.27ZM54.31-4.27L54.31-4.27Q54.03 0 50.13 0.14L50.13 0.14Q46.20 0 45.92-4.27L45.92-4.27Q46.15-8.72 50.13-8.81L50.13-8.81Q54.03-8.67 54.31-4.27ZM56.58-7.59L53.67-7.59L53.67-8.58L60.61-8.58L60.61-7.59L57.71-7.59L57.71 0L56.58 0L56.58-7.59ZM67.15-4.27L67.15-4.27Q66.96-7.64 64.15-7.83L64.15-7.83Q61.29-7.69 61.15-4.27L61.15-4.27Q61.29-0.94 64.15-0.80L64.15-0.80Q66.96-0.98 67.15-4.27ZM68.32-4.27L68.32-4.27Q68.04 0 64.15 0.14L64.15 0.14Q60.21 0 59.93-4.27L59.93-4.27Q60.17-8.72 64.15-8.81L64.15-8.81Q68.04-8.67 68.32-4.27ZM75.57-6.05L75.57-6.05L74.44-6.05Q74.02-7.78 72.05-7.83L72.05-7.83Q69.33-7.69 69.24-4.36L69.24-4.36Q69.24-0.80 72.10-0.80L72.10-0.80Q74.07-0.84 74.53-3.19L74.53-3.19L75.66-3.19Q75.14 0.05 71.86 0.14L71.86 0.14Q68.11 0 68.02-4.31L68.02-4.31Q68.21-8.63 72.05-8.81L72.05-8.81Q75.10-8.72 75.57-6.05ZM82.53-4.27L82.53-4.27Q82.34-7.64 79.53-7.83L79.53-7.83Q76.67-7.69 76.53-4.27L76.53-4.27Q76.67-0.94 79.53-0.80L79.53-0.80Q82.34-0.98 82.53-4.27ZM83.70-4.27L83.70-4.27Q83.42 0 79.53 0.14L79.53 0.14Q75.59 0 75.31-4.27L75.31-4.27Q75.54-8.72 79.53-8.81L79.53-8.81Q83.42-8.67 83.70-4.27ZM83.77-8.58L84.94-8.58L84.94-1.03L89.30-1.03L89.30 0L83.77 0L83.77-8.58Z" transform="translate(-0.46875, 8.8125)"></path></g></g></g></g></g><defs v-gra="od"></defs></svg>